<svg xmlns="http://www.w3.org/2000/svg" xml:space="preserve" id="Layer_1" x="0" y="0" style="enable-background:new 0 0 257.2 86.3" version="1.1" viewBox="0 0 257.2 86.3"><style>.st0{fill:#fff}</style><path d="M67.6 67.6v-36h17.5c2.5 0 4.6.5 6.5 1.4 1.9.9 3.3 2.3 4.4 3.9 1 1.7 1.6 3.6 1.6 5.8 0 2.3-.6 4.3-1.9 6-1.3 1.8-3 3.1-5.1 3.9l8 14.9h-8.3l-7-13.8h-8.1v13.8h-7.6zm7.5-19.9h9.5c1.7 0 3-.4 4-1.3s1.5-2.1 1.5-3.5c0-1.5-.5-2.7-1.5-3.5-1-.9-2.4-1.3-4-1.3h-9.5v9.6zM113 68.1c-2.1 0-3.9-.5-5.5-1.4s-2.8-2.2-3.7-3.8c-.9-1.6-1.3-3.5-1.3-5.5V40.8h7v15.6c0 1.7.5 3.1 1.5 4.1 1 1 2.4 1.5 4.1 1.5 1.2 0 2.2-.2 3.2-.7.9-.5 1.7-1.1 2.3-2V40.8h7v26.8h-7v-2.2c-2.1 1.8-4.6 2.7-7.6 2.7zM146.6 68c-2.5 0-4.8-.6-6.9-1.9-2.1-1.2-3.7-2.9-4.9-5-1.2-2.1-1.8-4.4-1.8-7 0-2.5.6-4.9 1.8-6.9 1.2-2.1 2.9-3.7 5-5 2.1-1.2 4.4-1.8 7-1.8 1.3 0 2.6.2 3.8.5 1.2.4 2.4.9 3.5 1.6v-11l7-1.2v37.2h-6.9v-2.2c-2.2 1.8-4.8 2.7-7.6 2.7zm1.1-6c1.3 0 2.5-.2 3.5-.7 1.1-.4 2-1.1 2.8-1.9V49c-.8-.8-1.7-1.4-2.8-1.8-1.1-.4-2.3-.6-3.5-.6-1.5 0-2.8.3-4 1s-2.1 1.6-2.8 2.8c-.7 1.2-1 2.5-1 3.9 0 1.5.4 2.8 1.1 4 .7 1.2 1.6 2.1 2.8 2.8 1.1.5 2.4.9 3.9.9zM180 68c-2.5 0-4.8-.6-6.9-1.9-2.1-1.2-3.7-2.9-4.9-5-1.2-2.1-1.8-4.4-1.8-7 0-2.5.6-4.9 1.8-6.9 1.2-2.1 2.9-3.7 5-5 2.1-1.2 4.4-1.8 7-1.8 1.3 0 2.6.2 3.8.5 1.2.4 2.4.9 3.5 1.6v-11l7-1.2v37.2h-6.9v-2.2c-2.1 1.8-4.7 2.7-7.6 2.7zm1.2-6c1.3 0 2.5-.2 3.5-.7 1.1-.4 2-1.1 2.8-1.9V49c-.8-.8-1.7-1.4-2.8-1.8-1.1-.4-2.3-.6-3.5-.6-1.5 0-2.8.3-4 1s-2.1 1.6-2.8 2.8c-.7 1.2-1 2.5-1 3.9 0 1.5.4 2.8 1.1 4 .7 1.2 1.6 2.1 2.8 2.8 1.1.5 2.4.9 3.9.9zM214.3 68.1c-2.7 0-5.1-.6-7.3-1.9-2.2-1.3-3.9-2.9-5.2-5-1.3-2.1-1.9-4.4-1.9-7 0-2.6.6-4.9 1.8-7 1.2-2.1 2.9-3.8 5-5 2.1-1.2 4.4-1.9 6.9-1.9 2.6 0 4.9.6 6.9 1.9s3.6 3 4.7 5.1c1.1 2.2 1.7 4.6 1.7 7.4v1.9H207c.3 1.1.8 2 1.5 2.9.7.9 1.6 1.5 2.6 2s2.1.7 3.3.7c1.2 0 2.3-.2 3.3-.5s1.9-.9 2.6-1.6l4.6 4.2c-1.6 1.3-3.3 2.3-5.1 2.9-1.4.6-3.4.9-5.5.9zM207 51.6h13.1c-.3-1.1-.7-2-1.4-2.8-.6-.8-1.4-1.4-2.3-1.9-.9-.4-1.9-.7-2.9-.7-1.1 0-2.1.2-3 .6-.9.4-1.6 1-2.2 1.9-.6.8-1 1.8-1.3 2.9zM232.3 67.6V40.8h7.1v3c.8-1.2 1.8-2.1 3.1-2.7 1.2-.6 2.6-.9 4.1-.9 1.3 0 2.3.2 2.9.6V47c-.5-.2-1.1-.4-1.7-.6-.6-.1-1.2-.2-1.9-.2-1.4 0-2.6.4-3.8 1.1-1.1.7-2 1.7-2.7 3v17.4h-7.1zM10.7 67.7l-3-49.5s-.3-7.1 6.1-8.8 26.8 4 32.3 15.2c2.1 4.3 1 15.5-1.3 24.9-2.4 9.4-5.8 18.2-5.8 18.2H10.7z" class="st0"/><path d="m10.7 71.4.2 3.4c.1 1.5 1.3 2.7 2.8 2.7h17.7c2.3 0 4.3-1.3 5.4-3.3l1.4-2.7H10.7z" style="fill:#C93527"/></svg>